PathFileType	4	(X/Y/Z)	C:/Users/opensim2020/Desktop/walking_exp_matlab/subject06_walking13_straight_04.trc																																																																																																																																																				
DataRate	CameraRate	NumFrames	NumMarkers	Units	OrigDataRate	OrigDataStartFrame	OrigNumFrames																																																																																																																																																
100	100	7	50	mm	100	2860	204																																																																																																																																																
Frame#	Time	LFHD			RFHD			LBHD			RBHD			C7			T10			CLAV			STRN			RBAK			LSHO			LUPA			LELB			LFRM			LWRA			LWRB			LFIN			RSHO			RUPA			RELB			RFRM			RWRA			RWRB			RFIN			LASI			RASI			LPSI			RPSI			LTHI			LKNE			LTIB			LANK			LHEE			LTOE			RTHI			RKNE			RTIB			RANK			RHEE			RTOE			*39			*40			*41			*42			*43			*44			*45			*46			*47			*48			*49		
		X1	Y1	Z1	X2	Y2	Z2	X3	Y3	Z3	X4	Y4	Z4	X5	Y5	Z5	X6	Y6	Z6	X7	Y7	Z7	X8	Y8	Z8	X9	Y9	Z9	X10	Y10	Z10	X11	Y11	Z11	X12	Y12	Z12	X13	Y13	Z13	X14	Y14	Z14	X15	Y15	Z15	X16	Y16	Z16	X17	Y17	Z17	X18	Y18	Z18	X19	Y19	Z19	X20	Y20	Z20	X21	Y21	Z21	X22	Y22	Z22	X23	Y23	Z23	X24	Y24	Z24	X25	Y25	Z25	X26	Y26	Z26	X27	Y27	Z27	X28	Y28	Z28	X29	Y29	Z29	X30	Y30	Z30	X31	Y31	Z31	X32	Y32	Z32	X33	Y33	Z33	X34	Y34	Z34	X35	Y35	Z35	X36	Y36	Z36	X37	Y37	Z37	X38	Y38	Z38	X39	Y39	Z39	X40	Y40	Z40	X41	Y41	Z41	X42	Y42	Z42	X43	Y43	Z43	X44	Y44	Z44	X45	Y45	Z45	X46	Y46	Z46	X47	Y47	Z47	X48	Y48	Z48	X49	Y49	Z49	X50	Y50	Z50
																																																																																																																																																							
1	0	-1301.96863	1680.48254	-1495.54517	-1311.71338	1659.46838	-1365.63342	-1434.82703	1626.30493	-1509.56165	-1443.00635	1611.42896	-1382.03076	-1439.34143	1462.78052	-1457.71423	-1471.13342	1134.01563	-1452.79016	-1326.8158	1388.13831	-1457.95532	-1285.49854	1213.4939	-1469.31506	-1508.55029	1291.53052	-1380.56213	-1382.72339	1423.43286	-1618.48889	-1349.76685	1227.88171	-1701.40369	-1326.98804	1118.20117	-1721.01868	-1254.99585	987.17346	-1745.95557	-1164.10278	896.27704	-1702.19678	-1215.67517	873.88361	-1744.71631	-1148.51953	814.12903	-1747.31018	-1369.88879	1416.55542	-1295.46155	-1421.97961	1218.68835	-1214.74097	-1425.85168	1096.55701	-1204.68835	-1425.41125	976.18121	-1186.25977	-1380.55493	829.42639	-1212.29016	-1436.33484	838.65039	-1175.86487	-1410.43127	758.10126	-1171.20874	-1296.52942	975.15869	-1569.34839	-1282.00488	984.57306	-1347.78516	-1453.823	1000.50641	-1529.2041	-1435.49268	1000.98132	-1361.45642	-1372.61987	660.70856	-1620.48889	-1376.86682	496.62091	-1600.43616	-1444.87109	246.68384	-1596.10339	-1469.07117	74.96875	-1551.7395	-1510.64514	63.1762	-1507.17554	-1326.29248	40.01867	-1550.03015	-1252.91553	657.8111	-1288.65771	-1209.63208	540.11719	-1313.05127	-1312.1897	298.21451	-1319.3374	-1379.06543	125.2903	-1363.47034	-1418.25342	107.47621	-1413.16272	-1245.33142	55.05803	-1348.24756	-1406.35718	1714.68103	-1440.85339	NaN	NaN	NaN	NaN	NaN	NaN	NaN	NaN	NaN	NaN	NaN	NaN	NaN	NaN	NaN	NaN	NaN	NaN	NaN	NaN	NaN	NaN	NaN	NaN	NaN	NaN	NaN	NaN	NaN	NaN
2	0.01	-1292.37891	1679.93555	-1496.75854	-1302.46301	1658.91699	-1366.96448	-1425.26697	1625.86694	-1511.23352	-1433.76196	1610.8927	-1383.65027	-1430.1134	1462.40918	-1459.44226	-1462.34534	1133.58362	-1454.27637	-1317.70129	1387.59131	-1459.39392	-1276.56396	1212.81348	-1470.74268	-1499.82397	1291.20361	-1382.76025	-1373.16907	1423.05981	-1620.03552	-1338.20471	1228.03101	-1702.97803	-1313.54822	1118.68823	-1722.67261	-1237.81799	989.26135	-1746.84045	-1144.16516	901.88086	-1703.51453	-1195.53235	877.79022	-1745.80566	-1126.43945	819.73462	-1747.95618	-1361.15259	1415.89905	-1296.9397	-1415.42285	1218.56299	-1216.47607	-1420.49414	1096.49146	-1206.49158	-1421.37463	976.0918	-1188.1897	-1378.00024	828.85468	-1214.25061	-1434.03345	838.78143	-1177.79248	-1408.93506	757.66064	-1173.8053	-1288.16565	974.23041	-1570.59192	-1273.2804	984.32318	-1348.96021	-1445.19934	999.89008	-1530.14502	-1426.74963	1000.72461	-1362.49268	-1365.94421	660.0896	-1620.93945	-1371.63501	495.97409	-1600.75	-1442.57239	246.88995	-1596.24744	-1468.55005	75.46435	-1551.61646	-1510.27808	63.99187	-1506.98608	-1326.12646	39.9527	-1550.04675	-1243.67297	657.94733	-1289.39087	-1200.48254	540.27155	-1313.97595	-1293.49634	293.81201	-1320.35486	-1350.64294	117.22706	-1364.66724	-1388.677	97.85122	-1414.69238	-1213.73975	53.94978	-1347.65393	-1396.9696	1714.18958	-1442.4093	NaN	NaN	NaN	NaN	NaN	NaN	NaN	NaN	NaN	NaN	NaN	NaN	NaN	NaN	NaN	NaN	NaN	NaN	NaN	NaN	NaN	NaN	NaN	NaN	NaN	NaN	NaN	NaN	NaN	NaN
3	0.02	-1282.8634	1679.25867	-1498.01038	-1293.15869	1658.20117	-1368.29431	-1415.71045	1625.29138	-1512.87781	-1424.56653	1610.30664	-1385.37024	-1420.79333	1461.88879	-1461.06763	-1453.4231	1132.97607	-1455.57605	-1308.53491	1386.85901	-1460.64893	-1267.70837	1212.07996	-1472.12207	-1491.03918	1290.7124	-1384.86401	-1363.54297	1422.52771	-1621.50171	-1326.76123	1227.98376	-1704.51807	-1300.40601	1119.0498	-1724.29309	-1221.4165	991.85065	-1748.46106	-1124.29395	907.78906	-1705.01538	-1175.52307	881.4137	-1746.29651	-1104.66321	825.49963	-1748.33704	-1352.44482	1415.10864	-1298.33459	-1408.9303	1218.34387	-1218.12158	-1414.99878	1096.20789	-1208.27527	-1417.12354	975.84979	-1189.92371	-1375.125	828.12073	-1216.19202	-1430.854	838.51801	-1179.97314	-1406.90332	757.10211	-1176.16199	-1279.76636	973.4046	-1571.75793	-1264.42285	983.74451	-1350.21289	-1436.62939	999.263	-1531.01807	-1417.96033	1000.29657	-1363.40637	-1359.33545	659.46118	-1621.38684	-1366.55347	495.36023	-1601.01868	-1440.20667	247.03004	-1596.3739	-1468.04199	76.00784	-1551.52185	-1509.93433	64.72742	-1506.84094	-1325.9447	39.90117	-1550.04004	-1234.84558	657.77386	-1289.88574	-1191.74475	540.04504	-1314.84119	-1274.90173	289.42291	-1321.27148	-1322.02917	110.0149	-1365.50439	-1358.25244	88.60489	-1416.16858	-1182.30371	52.96824	-1347.04919	-1387.50806	1713.58813	-1443.93628	NaN	NaN	NaN	NaN	NaN	NaN	NaN	NaN	NaN	NaN	NaN	NaN	NaN	NaN	NaN	NaN	NaN	NaN	NaN	NaN	NaN	NaN	NaN	NaN	NaN	NaN	NaN	NaN	NaN	NaN
4	0.03	-1273.29126	1678.46118	-1499.1803	-1284.06213	1657.4845	-1369.44556	-1406.12463	1624.56177	-1514.42651	-1415.30872	1609.57458	-1386.91125	-1411.38623	1461.25562	-1462.53979	-1444.61157	1132.38611	-1456.72461	-1299.33569	1386.03918	-1461.81128	-1258.78357	1211.18787	-1473.29346	-1482.20386	1290.08411	-1386.79175	-1353.85474	1421.84692	-1622.90894	-1315.53882	1227.78479	-1705.95959	-1287.49976	1119.23645	-1725.80969	-1205.20813	994.04266	-1749.49829	-1105.17871	913.51282	-1705.90332	-1155.84558	885.02863	-1746.50989	-1083.25439	831.22766	-1748.32239	-1343.68579	1414.20764	-1299.64917	-1402.35059	1218.02856	-1219.74207	-1409.42957	1095.88843	-1209.86877	-1412.60254	975.51892	-1191.61816	-1371.77747	827.62457	-1218.12842	-1427.42126	838.43365	-1181.67627	-1404.36035	756.60559	-1178.23889	-1271.32983	972.53296	-1572.82605	-1255.5094	983.29962	-1351.24646	-1428.01282	998.52386	-1531.56531	-1409.03101	999.69092	-1364.12146	-1352.77234	658.85431	-1621.8363	-1361.62915	494.82275	-1601.36597	-1438.06226	247.23738	-1596.45715	-1467.59131	76.50191	-1551.39648	-1509.60889	65.54048	-1506.69702	-1325.9187	39.82356	-1549.99817	-1226.42004	657.14435	-1290.36511	-1183.45679	539.43829	-1315.62317	-1256.2821	285.0383	-1322.01807	-1293.13086	103.21763	-1366.19385	-1328.87805	80.65291	-1416.15503	-1151.08252	52.47326	-1346.58472	-1378.05505	1712.83679	-1445.40881	NaN	NaN	NaN	NaN	NaN	NaN	NaN	NaN	NaN	NaN	NaN	NaN	NaN	NaN	NaN	NaN	NaN	NaN	NaN	NaN	NaN	NaN	NaN	NaN	NaN	NaN	NaN	NaN	NaN	NaN
5	0.04	-1263.74817	1677.52917	-1500.35083	-1274.84155	1656.61829	-1370.61316	-1396.54199	1623.6814	-1515.87939	-1405.98376	1608.70374	-1388.33215	-1401.99695	1460.48816	-1464.01782	-1435.57166	1131.67786	-1457.56177	-1290.01758	1385.06274	-1462.93665	-1249.7688	1210.14563	-1474.38818	-1473.32471	1289.37366	-1388.63879	-1344.09985	1421.02087	-1624.17786	-1304.43018	1227.4408	-1707.32617	-1274.85046	1119.21863	-1727.2218	-1189.09937	996.01483	-1750.32922	-1086.63647	919.23138	-1706.5509	-1136.57104	888.6983	-1746.5614	-1062.36682	837.37354	-1748.32654	-1334.88745	1413.1781	-1300.82654	-1395.72644	1217.63843	-1221.20313	-1403.6864	1095.46082	-1211.36255	-1407.79468	975.10901	-1193.26941	-1367.94873	826.88257	-1219.82666	-1423.64978	838.13074	-1183.5387	-1401.09888	755.97699	-1180.32227	-1262.66016	971.47351	-1573.73486	-1246.4823	982.47034	-1352.22327	-1419.32471	997.70544	-1532.03662	-1399.80322	998.90631	-1364.55505	-1346.25134	658.21417	-1622.25928	-1356.76892	494.23004	-1601.72778	-1435.89856	247.45441	-1596.63147	-1467.14807	77.05629	-1551.43604	-1509.29932	66.39784	-1506.60852	-1326.00183	39.89497	-1550.18213	-1218.5116	655.99432	-1290.68201	-1175.62524	538.1449	-1316.23254	-1237.53845	280.68158	-1322.51245	-1264.12244	97.08347	-1366.67542	-1298.86438	73.8706	-1416.60486	-1119.9707	52.17707	-1346.87134	-1368.63428	1711.97217	-1446.83862	NaN	NaN	NaN	NaN	NaN	NaN	NaN	NaN	NaN	NaN	NaN	NaN	NaN	NaN	NaN	NaN	NaN	NaN	NaN	NaN	NaN	NaN	NaN	NaN	NaN	NaN	NaN	NaN	NaN	NaN
6	0.05	-1254.18542	1676.48621	-1501.45862	-1265.54663	1655.60461	-1371.79565	-1386.95398	1622.62305	-1517.2876	-1396.67529	1607.76465	-1389.74219	-1392.55383	1459.63916	-1465.37427	-1426.50745	1130.82544	-1458.224	-1280.66699	1383.93994	-1463.98206	-1240.71765	1208.96497	-1475.45288	-1464.41089	1288.59277	-1390.35107	-1334.36072	1420.05835	-1625.29724	-1293.36267	1226.91833	-1708.51685	-1262.40918	1119.08826	-1728.52905	-1173.60718	998.1795	-1751.16931	-1068.65686	924.90735	-1706.93726	-1117.40088	892.05682	-1745.99377	-1041.88684	843.42914	-1748.02222	-1326.02209	1412.05652	-1301.90283	-1389.00647	1217.16028	-1222.62573	-1397.78613	1095.00366	-1212.79346	-1402.77124	974.6618	-1194.73889	-1363.71204	826.21442	-1221.48938	-1419.47437	837.55902	-1185.43909	-1397.37378	755.43237	-1182.2395	-1254.03345	970.46228	-1574.6394	-1237.44946	981.36597	-1353.14014	-1410.63367	996.86371	-1532.48083	-1390.47485	997.95557	-1364.90027	-1339.70459	657.55371	-1622.6532	-1351.97803	493.56207	-1602.19263	-1433.82227	247.65762	-1596.90479	-1466.80737	77.59897	-1551.3905	-1509.07825	67.23559	-1506.5791	-1325.93909	39.81469	-1550.2124	-1210.94641	654.41156	-1290.9375	-1168.18213	536.422	-1316.72424	-1218.77441	276.41599	-1322.77783	-1235.62512	91.84253	-1366.3269	-1267.33911	66.31367	-1418.41846	-1089.11157	52.53669	-1346.99756	-1359.20422	1710.98987	-1448.27515	NaN	NaN	NaN	NaN	NaN	NaN	NaN	NaN	NaN	NaN	NaN	NaN	NaN	NaN	NaN	NaN	NaN	NaN	NaN	NaN	NaN	NaN	NaN	NaN	NaN	NaN	NaN	NaN	NaN	NaN
7	0.06	-1244.57605	1675.31641	-1502.54163	-1256.17505	1654.4613	-1372.90308	-1377.32983	1621.42786	-1518.57153	-1387.229	1606.66577	-1391.02783	-1383.04761	1458.56909	-1466.5437	-1417.36584	1129.83411	-1458.65344	-1271.24048	1382.70532	-1464.85718	-1231.6366	1207.65405	-1476.24829	-1455.39465	1287.65137	-1391.85645	-1324.55432	1418.9812	-1626.29956	-1282.37463	1226.27295	-1709.57996	-1250.17871	1118.81482	-1729.68335	-1158.32361	1000.13483	-1751.88513	-1051.18188	930.487	-1707.07031	-1098.90894	895.66382	-1745.5835	-1021.87323	849.49341	-1747.43213	-1317.07886	1410.88745	-1302.89771	-1382.49207	1216.57361	-1223.7854	-1391.64807	1094.4762	-1214.08728	-1397.42712	974.13434	-1196.2113	-1359.07593	825.46191	-1222.82813	-1415.16992	837.15668	-1186.95911	-1393.50134	754.83167	-1183.98145	-1245.22498	969.22626	-1575.33081	-1228.26196	980.12372	-1353.89404	-1401.92786	995.91821	-1532.76611	-1381.11267	996.80634	-1365.20593	-1333.24731	656.9071	-1623.08472	-1347.15002	492.92157	-1602.73523	-1431.78516	247.87344	-1597.17969	-1466.46423	78.22326	-1551.53418	-1508.85291	68.17756	-1506.57861	-1325.72119	39.71526	-1550.12524	-1203.43982	652.78796	-1291.18884	-1161.10388	534.34387	-1317.10437	-1200.1344	272.62952	-1322.87268	-1206.51245	87.39464	-1366.48889	-1237.22266	60.763	-1418.71606	-1058.30603	53.09713	-1347.25732	-1349.7489	1709.81946	-1449.56128	NaN	NaN	NaN	NaN	NaN	NaN	NaN	NaN	NaN	NaN	NaN	NaN	NaN	NaN	NaN	NaN	NaN	NaN	NaN	NaN	NaN	NaN	NaN	NaN	NaN	NaN	NaN	NaN	NaN	NaN
